<svg viewBox="0 0 694 1071" fill="none" xmlns="http://www.w3.org/2000/svg">
<g id="Frame 1">
<path id="Ellipse 1" d="M694 400C694 620.914 350.617 1070.5 350.617 1070.5C350.617 1070.5 0 620.914 0 400C0 179.086 155.357 0 347 0C538.643 0 694 179.086 694 400Z" fill="#3F4042"/>
<circle id="Ellipse 2" cx="347" cy="335" r="284" fill="#E4E5E7" stroke="black" stroke-width="6"/>
<g id="ExcludeHouse">
<path d="M344.453 145.577L501.453 311.577L502 312.155V526.951H382V384.951H311V526.951H192V312.186L192.512 311.615L341.512 145.615L342.962 144L344.453 145.577ZM245 381.951V451.951H283V381.951H245ZM407 451.951H445V381.951H407V451.951Z" fill="#3F4042"/>
<path d="M344.453 145.577L341.91 147.982L341.91 147.982L344.453 145.577ZM501.453 311.577L498.91 313.982L498.91 313.982L501.453 311.577ZM502 312.155H505.5V310.762L504.543 309.75L502 312.155ZM502 526.951V530.451H505.5V526.951H502ZM382 526.951H378.5V530.451H382V526.951ZM382 384.951H385.5V381.451H382V384.951ZM311 384.951V381.451H307.5V384.951H311ZM311 526.951V530.451H314.5V526.951H311ZM192 526.951H188.5V530.451H192V526.951ZM192 312.186L189.395 309.848L188.5 310.846V312.186H192ZM192.512 311.615L189.907 309.277L189.907 309.278L192.512 311.615ZM341.512 145.615L338.907 143.277L338.907 143.277L341.512 145.615ZM342.962 144L345.505 141.595L342.895 138.835L340.358 141.662L342.962 144ZM245 381.951V378.451H241.5V381.951H245ZM245 451.951H241.5V455.451H245V451.951ZM283 451.951V455.451H286.5V451.951H283ZM283 381.951H286.5V378.451H283V381.951ZM407 451.951H403.5V455.451H407V451.951ZM445 451.951V455.451H448.5V451.951H445ZM445 381.951H448.5V378.451H445V381.951ZM407 381.951V378.451H403.5V381.951H407ZM344.453 145.577L341.91 147.982L498.91 313.982L501.453 311.577L503.996 309.172L346.996 143.172L344.453 145.577ZM501.453 311.577L498.91 313.982L499.457 314.56L502 312.155L504.543 309.75L503.996 309.172L501.453 311.577ZM502 312.155H498.5V526.951H502H505.5V312.155H502ZM502 526.951V523.451H382V526.951V530.451H502V526.951ZM382 526.951H385.5V384.951H382H378.5V526.951H382ZM382 384.951V381.451H311V384.951V388.451H382V384.951ZM311 384.951H307.5V526.951H311H314.5V384.951H311ZM311 526.951V523.451H192V526.951V530.451H311V526.951ZM192 526.951H195.5V312.186H192H188.5V526.951H192ZM192 312.186L194.605 314.523L195.117 313.953L192.512 311.615L189.907 309.278L189.395 309.848L192 312.186ZM192.512 311.615L195.116 313.953L344.116 147.953L341.512 145.615L338.907 143.277L189.907 309.277L192.512 311.615ZM341.512 145.615L344.116 147.953L345.566 146.338L342.962 144L340.358 141.662L338.907 143.277L341.512 145.615ZM342.962 144L340.419 146.405L341.91 147.982L344.453 145.577L346.996 143.173L345.505 141.595L342.962 144ZM245 381.951H241.5V451.951H245H248.5V381.951H245ZM245 451.951V455.451H283V451.951V448.451H245V451.951ZM283 451.951H286.5V381.951H283H279.5V451.951H283ZM283 381.951V378.451H245V381.951V385.451H283V381.951ZM407 451.951V455.451H445V451.951V448.451H407V451.951ZM445 451.951H448.5V381.951H445H441.5V451.951H445ZM445 381.951V378.451H407V381.951V385.451H445V381.951ZM407 381.951H403.5V451.951H407H410.5V381.951H407Z" fill="black"/>
</g>
</g>
</svg>
